<svg width="167" height="25" xmlns="http://www.w3.org/2000/svg"><g fill="#000" fill-rule="nonzero"><path d="M2.6 12.5c0-5.1 4.2-9.4 9.4-9.4V.5c-3 0-5.6 1-7.8 2.9-5 4.4-5.5 11.9-1.2 16.9l2-1.7c-1.5-1.6-2.4-3.8-2.4-6.1zM12 21.9c-2.8 0-5.4-1.2-7.1-3.2l-2 1.7c.4.5.9.9 1.4 1.3 5 4.3 12.6 3.6 16.8-1.5l-2-1.7c-1.7 2.1-4.3 3.4-7.1 3.4z"/><path d="M12 .5v2.6c5.1 0 9.4 4.2 9.4 9.4 0 2.3-.8 4.4-2.2 6l2 1.7c1.9-2.3 2.8-4.7 2.8-7.7-.1-6.6-5.4-12-12-12zM11.3 16V9.9h-2V8.8h5.3v1.1h-2V16z"/><g><path d="M32.206 17.154c.943 0 1.715-.147 2.317-.441.602-.294 1.073-.681 1.414-1.162.34-.48.576-1.029.707-1.645.13-.616.196-1.246.196-1.89 0-.71-.065-1.365-.196-1.967a3.999 3.999 0 00-.693-1.568c-.331-.443-.782-.791-1.351-1.043-.57-.252-1.288-.378-2.156-.378-.224 0-.478.005-.763.014-.285.01-.56.021-.826.035A20.044 20.044 0 0029.7 7.2v9.814c.121.019.294.035.518.049l.7.042c.243.014.48.026.714.035.233.01.425.014.574.014zm.224-1.708c-.047 0-.107-.002-.182-.007a63.222 63.222 0 00-.462-.028 1.007 1.007 0 01-.168-.021V8.824c.084-.01.21-.021.378-.035.168-.014.34-.021.518-.021.532 0 .952.103 1.26.308.308.205.539.467.693.784.154.317.252.667.294 1.05a10.144 10.144 0 01-.007 2.338c-.047.41-.15.78-.308 1.106-.159.327-.399.59-.721.791-.322.2-.754.301-1.295.301zm8.32 1.666c.588 0 1.055-.105 1.4-.315.345-.21.611-.46.798-.749h.07L43.2 17h2.324v-1.54h-.91a5.847 5.847 0 00-.042-.378 8.653 8.653 0 01-.028-.658c0-.261.016-.56.05-.896.032-.336.048-.742.048-1.218 0-.373-.047-.71-.14-1.008a1.889 1.889 0 00-.455-.77 2.07 2.07 0 00-.826-.497c-.34-.117-.754-.175-1.239-.175-.672 0-1.253.06-1.743.182a7.64 7.64 0 00-1.295.434l.434 1.428c.261-.121.583-.243.966-.364a4.252 4.252 0 011.288-.182c.401 0 .705.077.91.231.205.154.308.408.308.763v.266c0 .093-.01.187-.028.28-.27-.019-.5-.037-.686-.056a5.814 5.814 0 00-1.827.105 3.002 3.002 0 00-.994.406 1.814 1.814 0 00-.63.7c-.145.285-.217.623-.217 1.015 0 .616.205 1.11.616 1.484.41.373.966.56 1.666.56zm.588-1.498c-.355 0-.609-.072-.763-.217-.154-.145-.23-.348-.23-.609 0-.159.041-.294.125-.406a.932.932 0 01.336-.273c.14-.07.299-.121.476-.154a2.93 2.93 0 01.532-.049c.215 0 .415.012.602.035.187.023.327.044.42.063v.84a1.655 1.655 0 01-.49.525c-.224.163-.56.245-1.008.245zM51.702 17l2.674-7h-1.96l-1.568 4.886h-.098L48.86 10h-2.114l3.01 7h1.946zm7.522-7.882c.392 0 .705-.096.938-.287a.908.908 0 00.35-.735.955.955 0 00-.35-.742c-.233-.205-.546-.308-.938-.308-.382 0-.681.103-.896.308a.99.99 0 00-.322.742.94.94 0 00.322.735c.215.191.514.287.896.287zM62.752 17v-1.54h-2.59V10h-4.284v1.54h2.464v3.92h-2.464V17h6.874zm4.47.196c.234 0 .467-.026.7-.077a2.76 2.76 0 001.176-.567c.159-.13.285-.28.378-.448h.056l.182.896h2.254v-1.54h-.896a.712.712 0 01-.014-.14 19.007 19.007 0 01-.112-2.072V7.2H68.02v1.54h1.106v1.302a2.723 2.723 0 00-.665-.161 6.494 6.494 0 00-.819-.049c-.522 0-1.003.086-1.442.259-.438.173-.819.42-1.14.742a3.389 3.389 0 00-.757 1.183c-.182.467-.273.999-.273 1.596 0 .616.084 1.15.252 1.603.168.453.397.826.686 1.12.29.294.628.511 1.015.651.388.14.8.21 1.24.21zm.42-1.54c-.56 0-.99-.182-1.288-.546-.298-.364-.448-.845-.448-1.442 0-.42.054-.775.161-1.064.108-.29.252-.525.434-.707.182-.182.392-.315.63-.399.238-.084.483-.126.735-.126s.493.026.721.077c.229.051.409.128.54.231v2.968a1.203 1.203 0 01-.54.749c-.275.173-.59.259-.945.259zM83.106 17l.672-2.17h2.926l.7 2.17h2.016l-3.15-9.8h-1.918L81.188 17h1.918zm3.22-3.71h-2.1l.98-3.276h.126l.994 3.276zm7.648 3.864c.355 0 .635-.098.84-.294.206-.196.308-.457.308-.784s-.102-.586-.308-.777c-.205-.191-.485-.287-.84-.287-.336 0-.606.096-.812.287-.205.191-.308.45-.308.777s.103.588.308.784c.206.196.476.294.812.294zM114.69 17v-3.99h-1.736v2.282h-2.786V7.2h-1.918V17h6.44zm5.324-7.882c.392 0 .704-.096.938-.287a.908.908 0 00.35-.735.955.955 0 00-.35-.742c-.234-.205-.546-.308-.938-.308-.383 0-.682.103-.896.308a.99.99 0 00-.322.742.94.94 0 00.322.735c.214.191.513.287.896.287zM123.54 17v-1.54h-2.59V10h-4.284v1.54h2.464v3.92h-2.464V17h6.874zm3.98 0v-4.536c.102-.299.296-.548.58-.749.285-.2.6-.301.946-.301.392 0 .716.126.973.378.256.252.385.663.385 1.232V17h1.82v-4.354c0-.541-.063-.996-.19-1.365-.125-.369-.296-.66-.51-.875a1.849 1.849 0 00-.777-.462 3.292 3.292 0 00-.973-.14c-.56 0-1.041.112-1.442.336-.402.224-.71.485-.924.784h-.056l-.21-.924h-2.45v1.54h1.008V17h1.82zm9.174.196c.233 0 .466-.026.7-.077a2.76 2.76 0 001.176-.567c.158-.13.284-.28.378-.448h.056l.182.896h2.254v-1.54h-.896a.712.712 0 01-.014-.14 19.007 19.007 0 01-.112-2.072V7.2h-2.926v1.54h1.106v1.302a2.724 2.724 0 00-.665-.161 6.494 6.494 0 00-.82-.049c-.522 0-1.003.086-1.441.259-.439.173-.82.42-1.141.742a3.389 3.389 0 00-.756 1.183c-.182.467-.273.999-.273 1.596 0 .616.084 1.15.252 1.603.168.453.396.826.686 1.12.289.294.627.511 1.015.651.387.14.8.21 1.239.21zm.42-1.54c-.56 0-.99-.182-1.288-.546-.299-.364-.448-.845-.448-1.442 0-.42.053-.775.16-1.064.108-.29.253-.525.435-.707.182-.182.392-.315.63-.399.238-.084.483-.126.735-.126s.492.026.72.077c.23.051.409.128.54.231v2.968a1.203 1.203 0 01-.54.749c-.275.173-.59.259-.944.259zm7.844 1.456c.588 0 1.054-.105 1.4-.315.345-.21.611-.46.798-.749h.07l.182.952h2.324v-1.54h-.91a5.848 5.848 0 00-.042-.378 8.653 8.653 0 01-.028-.658c0-.261.016-.56.049-.896l.017-.21c.021-.291.032-.627.032-1.008 0-.373-.047-.71-.14-1.008a1.889 1.889 0 00-.455-.77 2.07 2.07 0 00-.826-.497c-.34-.117-.754-.175-1.24-.175-.671 0-1.252.06-1.742.182a7.64 7.64 0 00-1.295.434l.434 1.428c.261-.121.583-.243.966-.364a4.252 4.252 0 011.288-.182c.401 0 .704.077.91.231.205.154.308.408.308.763v.266c0 .093-.01.187-.028.28-.27-.019-.5-.037-.686-.056a5.814 5.814 0 00-1.827.105 3.002 3.002 0 00-.994.406 1.814 1.814 0 00-.63.7c-.145.285-.217.623-.217 1.015 0 .616.205 1.11.616 1.484.41.373.966.56 1.666.56zm.588-1.498c-.355 0-.61-.072-.763-.217-.154-.145-.231-.348-.231-.609 0-.159.042-.294.126-.406a.932.932 0 01.336-.273c.14-.07.298-.121.476-.154a2.93 2.93 0 01.532-.049c.214 0 .415.012.602.035.186.023.326.044.42.063v.84a1.655 1.655 0 01-.49.525c-.224.163-.56.245-1.008.245zM153.405 17v-4.466c.121-.327.326-.595.616-.805.29-.21.606-.315.952-.315.392 0 .71.126.952.378s.364.663.364 1.232V17h1.82v-4.354c0-.541-.06-.996-.182-1.365s-.29-.66-.504-.875a1.853 1.853 0 00-.77-.462 3.272 3.272 0 00-.98-.14c-.504 0-.943.089-1.316.266a2.361 2.361 0 00-.896.714h-.056V7.2h-2.828v1.54h1.008V17h1.82zm10.868.196c.261 0 .497-.016.707-.049.21-.033.404-.08.58-.14.178-.06.346-.135.505-.224a8.59 8.59 0 00.476-.287l-.686-1.26a2.73 2.73 0 01-.56.259c-.187.06-.425.091-.714.091-.392 0-.677-.14-.854-.42-.177-.28-.266-.78-.266-1.498V7.2h-2.982v1.54h1.162v5.88c0 .821.22 1.456.658 1.904.439.448 1.097.672 1.974.672z"/></g></g></svg>