<svg width="138" height="11" xmlns="http://www.w3.org/2000/svg">
  <path d="M2.506,10.108 C3.44866667,10.108 4.221,9.961 4.823,9.667 C5.425,9.373 5.89633333,8.98566667 6.237,8.505 C6.57766667,8.02433333 6.81333333,7.476 6.944,6.86 C7.07466667,6.244 7.14,5.614 7.14,4.97 C7.14,4.26066667 7.07466667,3.605 6.944,3.003 C6.81333333,2.401 6.58233333,1.87833333 6.251,1.435 C5.91966667,0.991666667 5.46933333,0.644 4.9,0.392 C4.33066667,0.14 3.612,0.014 2.744,0.014 C2.52,0.014 2.26566667,0.0186666667 1.981,0.028 C1.69633333,0.0373333333 1.421,0.049 1.155,0.063 C0.889,0.077 0.651,0.0933333333 0.441,0.112 C0.231,0.130666667 0.084,0.144666667 0,0.154 L0,0.154 L0,9.968 C0.121333333,9.98666667 0.294,10.003 0.518,10.017 C0.742,10.031 0.975333333,10.045 1.218,10.059 C1.46066667,10.073 1.69866667,10.0846667 1.932,10.094 C2.16533333,10.1033333 2.35666667,10.108 2.506,10.108 Z M2.73,8.4 C2.68333333,8.4 2.62266667,8.39766667 2.548,8.393 C2.47333333,8.38833333 2.39633333,8.38366667 2.317,8.379 C2.23766667,8.37433333 2.16066667,8.36966667 2.086,8.365 C2.01133333,8.36033333 1.95533333,8.35333333 1.918,8.344 L1.918,8.344 L1.918,1.778 C2.002,1.76866667 2.128,1.757 2.296,1.743 C2.464,1.729 2.63666667,1.722 2.814,1.722 C3.346,1.722 3.766,1.82466667 4.074,2.03 C4.382,2.23533333 4.613,2.49666667 4.767,2.814 C4.921,3.13133333 5.019,3.48133333 5.061,3.864 C5.103,4.24666667 5.124,4.61533333 5.124,4.97 C5.124,5.38066667 5.10066667,5.79133333 5.054,6.202 C5.00733333,6.61266667 4.90466667,6.98133333 4.746,7.308 C4.58733333,7.63466667 4.347,7.89833333 4.025,8.099 C3.703,8.29966667 3.27133333,8.4 2.73,8.4 Z M11.0500581,10.066 C11.6380581,10.066 12.1047248,9.961 12.4500581,9.751 C12.7953915,9.541 13.0613915,9.29133333 13.2480581,9.002 L13.2480581,9.002 L13.3180581,9.002 L13.5000581,9.954 L15.8240581,9.954 L15.8240581,8.414 L14.9140581,8.414 C14.9047248,8.29266667 14.8907248,8.16666667 14.8720581,8.036 C14.8533915,7.79333333 14.8440581,7.574 14.8440581,7.378 C14.8440581,7.11666667 14.8603915,6.818 14.8930581,6.482 C14.9257248,6.146 14.9420581,5.74 14.9420581,5.264 C14.9420581,4.89066667 14.8953915,4.55466667 14.8020581,4.256 C14.7087248,3.95733333 14.5570581,3.70066667 14.3470581,3.486 C14.1370581,3.27133333 13.8617248,3.10566667 13.5210581,2.989 C13.1803915,2.87233333 12.7673915,2.814 12.2820581,2.814 C11.6100581,2.814 11.0290581,2.87466667 10.5390581,2.996 C10.0490581,3.11733333 9.61739147,3.262 9.24405813,3.43 L9.24405813,3.43 L9.67805813,4.858 C9.93939147,4.73666667 10.2613915,4.61533333 10.6440581,4.494 C11.0267248,4.37266667 11.4560581,4.312 11.9320581,4.312 C12.3333915,4.312 12.6367248,4.389 12.8420581,4.543 C13.0473915,4.697 13.1500581,4.95133333 13.1500581,5.306 L13.1500581,5.306 L13.1500581,5.572 C13.1500581,5.66533333 13.1407248,5.75866667 13.1220581,5.852 C12.8513915,5.83333333 12.6227248,5.81466667 12.4360581,5.796 C12.2493915,5.77733333 12.0720581,5.768 11.9040581,5.768 C11.4280581,5.768 10.9963915,5.81233333 10.6090581,5.901 C10.2217248,5.98966667 9.89039147,6.125 9.61505813,6.307 C9.3397248,6.489 9.1297248,6.72233333 8.98505813,7.007 C8.84039147,7.29166667 8.76805813,7.63 8.76805813,8.022 C8.76805813,8.638 8.97339147,9.13266667 9.38405813,9.506 C9.7947248,9.87933333 10.3500581,10.066 11.0500581,10.066 Z M11.6380581,8.568 C11.2833915,8.568 11.0290581,8.49566667 10.8750581,8.351 C10.7210581,8.20633333 10.6440581,8.00333333 10.6440581,7.742 C10.6440581,7.58333333 10.6860581,7.448 10.7700581,7.336 C10.8540581,7.224 10.9660581,7.133 11.1060581,7.063 C11.2460581,6.993 11.4047248,6.94166667 11.5820581,6.909 C11.7593915,6.87633333 11.9367248,6.86 12.1140581,6.86 C12.3287248,6.86 12.5293915,6.87166667 12.7160581,6.895 C12.9027248,6.91833333 13.0427248,6.93933333 13.1360581,6.958 L13.1360581,6.958 L13.1360581,7.798 C13.0333915,7.98466667 12.8700581,8.15966667 12.6460581,8.323 C12.4220581,8.48633333 12.0860581,8.568 11.6380581,8.568 Z M22.0021163,9.954 L24.6761163,2.954 L22.7161163,2.954 L21.1481163,7.84 L21.0501163,7.84 L19.1601163,2.954 L17.0461163,2.954 L20.0561163,9.954 L22.0021163,9.954 Z M29.5241744,2.072 C29.9161744,2.072 30.2288411,1.97633333 30.4621744,1.785 C30.6955077,1.59366667 30.8121744,1.34866667 30.8121744,1.05 C30.8121744,0.760666667 30.6955077,0.513333333 30.4621744,0.308 C30.2288411,0.102666667 29.9161744,0 29.5241744,0 C29.1415077,0 28.8428411,0.102666667 28.6281744,0.308 C28.4135077,0.513333333 28.3061744,0.760666667 28.3061744,1.05 C28.3061744,1.34866667 28.4135077,1.59366667 28.6281744,1.785 C28.8428411,1.97633333 29.1415077,2.072 29.5241744,2.072 Z M33.0521744,9.954 L33.0521744,8.414 L30.4621744,8.414 L30.4621744,2.954 L26.1781744,2.954 L26.1781744,4.494 L28.6421744,4.494 L28.6421744,8.414 L26.1781744,8.414 L26.1781744,9.954 L33.0521744,9.954 Z M37.5222325,10.15 C37.7555659,10.15 37.9888992,10.1243333 38.2222325,10.073 C38.4555659,10.0216667 38.6702325,9.947 38.8662325,9.849 C39.0622325,9.751 39.2395659,9.63666667 39.3982325,9.506 C39.5568992,9.37533333 39.6828992,9.226 39.7762325,9.058 L39.7762325,9.058 L39.8322325,9.058 L40.0142325,9.954 L42.2682325,9.954 L42.2682325,8.414 L41.3722325,8.414 C41.3628992,8.36733333 41.3582325,8.32066667 41.3582325,8.274 C41.2835659,7.59266667 41.2462325,6.902 41.2462325,6.202 L41.2462325,6.202 L41.2462325,0.154 L38.3202325,0.154 L38.3202325,1.694 L39.4262325,1.694 L39.4262325,2.996 C39.2395659,2.92133333 39.0178992,2.86766667 38.7612325,2.835 C38.5045659,2.80233333 38.2315659,2.786 37.9422325,2.786 C37.4195659,2.786 36.9388992,2.87233333 36.5002325,3.045 C36.0615659,3.21766667 35.6812325,3.465 35.3592325,3.787 C35.0372325,4.109 34.7852325,4.50333333 34.6032325,4.97 C34.4212325,5.43666667 34.3302325,5.96866667 34.3302325,6.566 C34.3302325,7.182 34.4142325,7.71633333 34.5822325,8.169 C34.7502325,8.62166667 34.9788992,8.995 35.2682325,9.289 C35.5575659,9.583 35.8958992,9.8 36.2832325,9.94 C36.6705659,10.08 37.0835659,10.15 37.5222325,10.15 Z M37.9422325,8.61 C37.3822325,8.61 36.9528992,8.428 36.6542325,8.064 C36.3555659,7.7 36.2062325,7.21933333 36.2062325,6.622 C36.2062325,6.202 36.2598992,5.84733333 36.3672325,5.558 C36.4745659,5.26866667 36.6192325,5.033 36.8012325,4.851 C36.9832325,4.669 37.1932325,4.536 37.4312325,4.452 C37.6692325,4.368 37.9142325,4.326 38.1662325,4.326 C38.4182325,4.326 38.6585659,4.35166667 38.8872325,4.403 C39.1158992,4.45433333 39.2955659,4.53133333 39.4262325,4.634 L39.4262325,4.634 L39.4262325,7.602 C39.3422325,7.92866667 39.1625659,8.17833333 38.8872325,8.351 C38.6118992,8.52366667 38.2968992,8.61 37.9422325,8.61 Z M53.4063488,9.954 L54.0783488,7.784 L57.0043488,7.784 L57.7043488,9.954 L59.7203488,9.954 L56.5703488,0.154 L54.6523488,0.154 L51.4883488,9.954 L53.4063488,9.954 Z M56.6263488,6.244 L54.5263488,6.244 L55.5063488,2.968 L55.6323488,2.968 L56.6263488,6.244 Z M64.2744069,10.108 C64.6290736,10.108 64.9090736,10.01 65.1144069,9.814 C65.3197403,9.618 65.4224069,9.35666667 65.4224069,9.03 C65.4224069,8.70333333 65.3197403,8.44433333 65.1144069,8.253 C64.9090736,8.06166667 64.6290736,7.966 64.2744069,7.966 C63.9384069,7.966 63.6677403,8.06166667 63.4624069,8.253 C63.2570736,8.44433333 63.1544069,8.70333333 63.1544069,9.03 C63.1544069,9.35666667 63.2570736,9.618 63.4624069,9.814 C63.6677403,10.01 63.9384069,10.108 64.2744069,10.108 Z M84.9885232,9.954 L84.9885232,5.964 L83.2525232,5.964 L83.2525232,8.246 L80.4665232,8.246 L80.4665232,0.154 L78.5485232,0.154 L78.5485232,9.954 L84.9885232,9.954 Z M90.3125813,2.072 C90.7045813,2.072 91.017248,1.97633333 91.2505813,1.785 C91.4839147,1.59366667 91.6005813,1.34866667 91.6005813,1.05 C91.6005813,0.760666667 91.4839147,0.513333333 91.2505813,0.308 C91.017248,0.102666667 90.7045813,0 90.3125813,0 C89.9299147,0 89.631248,0.102666667 89.4165813,0.308 C89.2019147,0.513333333 89.0945813,0.760666667 89.0945813,1.05 C89.0945813,1.34866667 89.2019147,1.59366667 89.4165813,1.785 C89.631248,1.97633333 89.9299147,2.072 90.3125813,2.072 Z M93.8405813,9.954 L93.8405813,8.414 L91.2505813,8.414 L91.2505813,2.954 L86.9665813,2.954 L86.9665813,4.494 L89.4305813,4.494 L89.4305813,8.414 L86.9665813,8.414 L86.9665813,9.954 L93.8405813,9.954 Z M97.8206395,9.954 L97.8206395,5.418 C97.9233061,5.11933333 98.1169728,4.86966667 98.4016395,4.669 C98.6863061,4.46833333 99.0013061,4.368 99.3466395,4.368 C99.7386395,4.368 100.062973,4.494 100.319639,4.746 C100.576306,4.998 100.704639,5.40866667 100.704639,5.978 L100.704639,5.978 L100.704639,9.954 L102.524639,9.954 L102.524639,5.6 C102.524639,5.05866667 102.461639,4.60366667 102.335639,4.235 C102.209639,3.86633333 102.039306,3.57466667 101.824639,3.36 C101.609973,3.14533333 101.350973,2.99133333 101.047639,2.898 C100.744306,2.80466667 100.419973,2.758 100.074639,2.758 C99.5146395,2.758 99.0339728,2.87 98.6326395,3.094 C98.2313061,3.318 97.9233061,3.57933333 97.7086395,3.878 L97.7086395,3.878 L97.6526395,3.878 L97.4426395,2.954 L94.9926395,2.954 L94.9926395,4.494 L96.0006395,4.494 L96.0006395,9.954 L97.8206395,9.954 Z M106.994698,10.15 C107.228031,10.15 107.461364,10.1243333 107.694698,10.073 C107.928031,10.0216667 108.142698,9.947 108.338698,9.849 C108.534698,9.751 108.712031,9.63666667 108.870698,9.506 C109.029364,9.37533333 109.155364,9.226 109.248698,9.058 L109.248698,9.058 L109.304698,9.058 L109.486698,9.954 L111.740698,9.954 L111.740698,8.414 L110.844698,8.414 C110.835364,8.36733333 110.830698,8.32066667 110.830698,8.274 C110.756031,7.59266667 110.718698,6.902 110.718698,6.202 L110.718698,6.202 L110.718698,0.154 L107.792698,0.154 L107.792698,1.694 L108.898698,1.694 L108.898698,2.996 C108.712031,2.92133333 108.490364,2.86766667 108.233698,2.835 C107.977031,2.80233333 107.704031,2.786 107.414698,2.786 C106.892031,2.786 106.411364,2.87233333 105.972698,3.045 C105.534031,3.21766667 105.153698,3.465 104.831698,3.787 C104.509698,4.109 104.257698,4.50333333 104.075698,4.97 C103.893698,5.43666667 103.802698,5.96866667 103.802698,6.566 C103.802698,7.182 103.886698,7.71633333 104.054698,8.169 C104.222698,8.62166667 104.451364,8.995 104.740698,9.289 C105.030031,9.583 105.368364,9.8 105.755698,9.94 C106.143031,10.08 106.556031,10.15 106.994698,10.15 Z M107.414698,8.61 C106.854698,8.61 106.425364,8.428 106.126698,8.064 C105.828031,7.7 105.678698,7.21933333 105.678698,6.622 C105.678698,6.202 105.732364,5.84733333 105.839698,5.558 C105.947031,5.26866667 106.091698,5.033 106.273698,4.851 C106.455698,4.669 106.665698,4.536 106.903698,4.452 C107.141698,4.368 107.386698,4.326 107.638698,4.326 C107.890698,4.326 108.131031,4.35166667 108.359698,4.403 C108.588364,4.45433333 108.768031,4.53133333 108.898698,4.634 L108.898698,4.634 L108.898698,7.602 C108.814698,7.92866667 108.635031,8.17833333 108.359698,8.351 C108.084364,8.52366667 107.769364,8.61 107.414698,8.61 Z M115.258756,10.066 C115.846756,10.066 116.313422,9.961 116.658756,9.751 C117.004089,9.541 117.270089,9.29133333 117.456756,9.002 L117.456756,9.002 L117.526756,9.002 L117.708756,9.954 L120.032756,9.954 L120.032756,8.414 L119.122756,8.414 C119.113422,8.29266667 119.099422,8.16666667 119.080756,8.036 C119.062089,7.79333333 119.052756,7.574 119.052756,7.378 C119.052756,7.11666667 119.069089,6.818 119.101756,6.482 L119.119396,6.272 C119.140302,5.9808 119.150756,5.6448 119.150756,5.264 C119.150756,4.89066667 119.104089,4.55466667 119.010756,4.256 C118.917422,3.95733333 118.765756,3.70066667 118.555756,3.486 C118.345756,3.27133333 118.070422,3.10566667 117.729756,2.989 C117.389089,2.87233333 116.976089,2.814 116.490756,2.814 C115.818756,2.814 115.237756,2.87466667 114.747756,2.996 C114.257756,3.11733333 113.826089,3.262 113.452756,3.43 L113.452756,3.43 L113.886756,4.858 C114.148089,4.73666667 114.470089,4.61533333 114.852756,4.494 C115.235422,4.37266667 115.664756,4.312 116.140756,4.312 C116.542089,4.312 116.845422,4.389 117.050756,4.543 C117.256089,4.697 117.358756,4.95133333 117.358756,5.306 L117.358756,5.306 L117.358756,5.572 C117.358756,5.66533333 117.349422,5.75866667 117.330756,5.852 C117.060089,5.83333333 116.831422,5.81466667 116.644756,5.796 C116.458089,5.77733333 116.280756,5.768 116.112756,5.768 C115.636756,5.768 115.205089,5.81233333 114.817756,5.901 C114.430422,5.98966667 114.099089,6.125 113.823756,6.307 C113.548422,6.489 113.338422,6.72233333 113.193756,7.007 C113.049089,7.29166667 112.976756,7.63 112.976756,8.022 C112.976756,8.638 113.182089,9.13266667 113.592756,9.506 C114.003422,9.87933333 114.558756,10.066 115.258756,10.066 Z M115.846756,8.568 C115.492089,8.568 115.237756,8.49566667 115.083756,8.351 C114.929756,8.20633333 114.852756,8.00333333 114.852756,7.742 C114.852756,7.58333333 114.894756,7.448 114.978756,7.336 C115.062756,7.224 115.174756,7.133 115.314756,7.063 C115.454756,6.993 115.613422,6.94166667 115.790756,6.909 C115.968089,6.87633333 116.145422,6.86 116.322756,6.86 C116.537422,6.86 116.738089,6.87166667 116.924756,6.895 C117.111422,6.91833333 117.251422,6.93933333 117.344756,6.958 L117.344756,6.958 L117.344756,7.798 C117.242089,7.98466667 117.078756,8.15966667 116.854756,8.323 C116.630756,8.48633333 116.294756,8.568 115.846756,8.568 Z M123.704814,9.954 L123.704814,5.488 C123.826147,5.16133333 124.031481,4.893 124.320814,4.683 C124.610147,4.473 124.927481,4.368 125.272814,4.368 C125.664814,4.368 125.982147,4.494 126.224814,4.746 C126.467481,4.998 126.588814,5.40866667 126.588814,5.978 L126.588814,5.978 L126.588814,9.954 L128.408814,9.954 L128.408814,5.6 C128.408814,5.05866667 128.348147,4.60366667 128.226814,4.235 C128.105481,3.86633333 127.937481,3.57466667 127.722814,3.36 C127.508147,3.14533333 127.251481,2.99133333 126.952814,2.898 C126.654147,2.80466667 126.327481,2.758 125.972814,2.758 C125.468814,2.758 125.030147,2.84666667 124.656814,3.024 C124.283481,3.20133333 123.984814,3.43933333 123.760814,3.738 L123.760814,3.738 L123.704814,3.738 L123.704814,0.154 L120.876814,0.154 L120.876814,1.694 L121.884814,1.694 L121.884814,9.954 L123.704814,9.954 Z M134.572872,10.15 C134.834205,10.15 135.069872,10.1336667 135.279872,10.101 C135.489872,10.0683333 135.683539,10.0216667 135.860872,9.961 C136.038205,9.90033333 136.206205,9.82566667 136.364872,9.737 C136.523539,9.64833333 136.682205,9.55266667 136.840872,9.45 L136.840872,9.45 L136.154872,8.19 C135.968205,8.302 135.781539,8.38833333 135.594872,8.449 C135.408205,8.50966667 135.170205,8.54 134.880872,8.54 C134.488872,8.54 134.204205,8.4 134.026872,8.12 C133.849539,7.84 133.760872,7.34066667 133.760872,6.622 L133.760872,6.622 L133.760872,0.154 L130.778872,0.154 L130.778872,1.694 L131.940872,1.694 L131.940872,7.574 C131.940872,8.39533333 132.160205,9.03 132.598872,9.478 C133.037539,9.926 133.695539,10.15 134.572872,10.15 Z" transform="translate(.7 .046)" fill="#000" fill-rule="nonzero"/>
</svg>